<svg width="16" height="18" viewBox="0 0 16 18" fill="none" xmlns="http://www.w3.org/2000/svg">
<path opacity="0.8" d="M16 7.71666V4.57468C14.5222 4.57468 13.3944 4.18193 12.6667 3.41856C11.9197 2.54735 11.5012 1.44406 11.4833 0.298709V0.0719115L8.5 0V12.7615C8.39766 13.3183 8.12621 13.8304 7.7223 14.2288C7.31839 14.6271 6.80146 14.8924 6.2413 14.9889C5.68114 15.0855 5.10472 15.0085 4.58986 14.7685C4.075 14.5286 3.64649 14.137 3.36218 13.6469C3.07786 13.1567 2.95144 12.5915 2.99997 12.0275C3.0485 11.4635 3.26964 10.928 3.63356 10.4931C3.99747 10.0582 4.48662 9.74502 5.03498 9.59573C5.58334 9.44644 6.1645 9.46827 6.7 9.65827V6.61586C6.38777 6.56492 6.07194 6.53902 5.75556 6.53841C4.61722 6.53841 3.50444 6.87452 2.55794 7.50423C1.61145 8.13393 0.873742 9.02896 0.438118 10.0761C0.00249369 11.1233 -0.111485 12.2756 0.110594 13.3872C0.332673 14.4989 0.880837 15.52 1.68577 16.3215C2.49069 17.123 3.51624 17.6688 4.6327 17.8899C5.74917 18.111 6.90642 17.9975 7.95811 17.5638C9.0098 17.13 9.9087 16.3955 10.5411 15.4531C11.1736 14.5106 11.5111 13.4026 11.5111 12.2692C11.5105 12.0344 11.4957 11.7998 11.4667 11.5667V6.50522C12.8232 7.34877 14.4015 7.77054 16 7.71666Z" fill="#0F0A19"/>
</svg>
